<svg width="512" height="512" viewBox="0 0 512 512" fill="none" xmlns="http://www.w3.org/2000/svg">
<rect width="512" height="512" fill="white"/>
<mask id="path-2-outside-1_3424_18" maskUnits="userSpaceOnUse" x="69" y="109" width="398" height="276" fill="black">
<rect fill="white" x="69" y="109" width="398" height="276"/>
<path d="M71.6 383V111H103.2V355.4H235.6V383H71.6ZM281.281 111H464.081V138.6H312.481V235.8H440.081V263.8H312.481V383H281.281V111Z"/>
</mask>
<path d="M71.6 383V111H103.2V355.4H235.6V383H71.6ZM281.281 111H464.081V138.6H312.481V235.8H440.081V263.8H312.481V383H281.281V111Z" fill="#B83134"/>
<path d="M71.6 383H69.6V385H71.6V383ZM71.6 111V109H69.6V111H71.6ZM103.2 111H105.2V109H103.2V111ZM103.2 355.4H101.2V357.4H103.2V355.4ZM235.6 355.4H237.6V353.4H235.6V355.4ZM235.6 383V385H237.6V383H235.6ZM73.6 383V111H69.6V383H73.6ZM71.6 113H103.2V109H71.6V113ZM101.2 111V355.4H105.2V111H101.2ZM103.2 357.4H235.6V353.4H103.2V357.4ZM233.6 355.4V383H237.6V355.4H233.6ZM235.6 381H71.6V385H235.6V381ZM281.281 111V109H279.281V111H281.281ZM464.081 111H466.081V109H464.081V111ZM464.081 138.6V140.6H466.081V138.6H464.081ZM312.481 138.6V136.6H310.481V138.6H312.481ZM312.481 235.8H310.481V237.8H312.481V235.8ZM440.081 235.8H442.081V233.8H440.081V235.8ZM440.081 263.8V265.8H442.081V263.8H440.081ZM312.481 263.8V261.8H310.481V263.8H312.481ZM312.481 383V385H314.481V383H312.481ZM281.281 383H279.281V385H281.281V383ZM281.281 113H464.081V109H281.281V113ZM462.081 111V138.6H466.081V111H462.081ZM464.081 136.6H312.481V140.6H464.081V136.6ZM310.481 138.6V235.8H314.481V138.6H310.481ZM312.481 237.8H440.081V233.8H312.481V237.8ZM438.081 235.8V263.8H442.081V235.8H438.081ZM440.081 261.8H312.481V265.8H440.081V261.8ZM310.481 263.8V383H314.481V263.8H310.481ZM312.481 381H281.281V385H312.481V381ZM283.281 383V111H279.281V383H283.281Z" fill="#B83130" mask="url(#path-2-outside-1_3424_18)"/>
</svg>
