<svg width="723" height="259" viewBox="0 0 723 259" fill="none" xmlns="http://www.w3.org/2000/svg">
<mask id="path-1-outside-1_3423_14" maskUnits="userSpaceOnUse" x="12" y="23" width="671" height="128" fill="black">
<rect fill="white" x="12" y="23" width="671" height="128"/>
<path d="M14.952 147V25.96H29.014V134.718H87.932V147H14.952ZM99.0042 123.148C99.0042 104.814 114.134 97.16 133.002 97.16L157.922 96.982V92.71C157.922 77.936 149.378 70.282 135.138 70.282C124.458 70.282 115.202 75.444 109.506 80.962L103.276 72.418C110.752 64.764 121.966 59.246 136.562 59.246C156.32 59.246 170.916 69.926 170.916 90.752V147H157.922V136.498C151.692 143.44 142.97 148.068 128.73 148.068C112.532 148.068 99.0042 140.77 99.0042 123.148ZM134.782 107.662C122.678 107.662 112.354 109.976 112.354 122.08C112.354 133.65 121.61 137.744 132.29 137.744C146.352 137.744 153.472 130.98 157.922 121.902V107.662H134.782ZM198.435 25.96H279.781V38.242H212.319V81.496H269.101V93.956H212.319V147H198.435V25.96ZM286.167 103.924C286.167 79.36 306.103 59.246 330.489 59.246C354.519 59.246 374.277 79.36 374.277 103.924C374.277 128.666 354.519 148.78 330.489 148.78C306.103 148.78 286.167 128.666 286.167 103.924ZM299.517 103.924C299.517 121.012 312.333 137.032 330.667 137.032C348.467 137.032 360.927 121.012 360.927 103.924C360.927 87.014 348.467 71.172 330.667 71.172C312.333 71.172 299.517 87.014 299.517 103.924ZM394.591 60.314H407.585V76.512C414.527 66.366 425.207 59.602 438.023 59.602C441.049 59.602 444.253 59.958 447.457 60.848V73.486C444.609 72.774 441.761 72.418 438.735 72.418C426.097 72.418 413.459 79.36 407.585 94.49V147H394.591V60.314ZM477.944 147H464.95V60.314H477.944V75.978C483.818 67.256 493.252 59.246 507.314 59.246C518.884 59.246 528.14 66.366 531.878 77.046C538.108 67.968 548.076 59.246 563.206 59.246C578.87 59.246 589.906 71.884 589.906 88.794V147H576.556V92.888C576.556 78.648 568.724 71.706 558.934 71.706C547.72 71.706 538.642 79.894 534.014 88.794V147H520.664V92.888C520.664 78.648 512.832 71.706 503.042 71.706C491.116 71.706 482.75 81.496 477.944 90.574V147ZM608.807 123.148C608.807 104.814 623.937 97.16 642.805 97.16L667.725 96.982V92.71C667.725 77.936 659.181 70.282 644.941 70.282C634.261 70.282 625.005 75.444 619.309 80.962L613.079 72.418C620.555 64.764 631.769 59.246 646.365 59.246C666.123 59.246 680.719 69.926 680.719 90.752V147H667.725V136.498C661.495 143.44 652.773 148.068 638.533 148.068C622.335 148.068 608.807 140.77 608.807 123.148ZM644.585 107.662C632.481 107.662 622.157 109.976 622.157 122.08C622.157 133.65 631.413 137.744 642.093 137.744C656.155 137.744 663.275 130.98 667.725 121.902V107.662H644.585Z"/>
</mask>
<path d="M14.952 147V25.96H29.014V134.718H87.932V147H14.952ZM99.0042 123.148C99.0042 104.814 114.134 97.16 133.002 97.16L157.922 96.982V92.71C157.922 77.936 149.378 70.282 135.138 70.282C124.458 70.282 115.202 75.444 109.506 80.962L103.276 72.418C110.752 64.764 121.966 59.246 136.562 59.246C156.32 59.246 170.916 69.926 170.916 90.752V147H157.922V136.498C151.692 143.44 142.97 148.068 128.73 148.068C112.532 148.068 99.0042 140.77 99.0042 123.148ZM134.782 107.662C122.678 107.662 112.354 109.976 112.354 122.08C112.354 133.65 121.61 137.744 132.29 137.744C146.352 137.744 153.472 130.98 157.922 121.902V107.662H134.782ZM198.435 25.96H279.781V38.242H212.319V81.496H269.101V93.956H212.319V147H198.435V25.96ZM286.167 103.924C286.167 79.36 306.103 59.246 330.489 59.246C354.519 59.246 374.277 79.36 374.277 103.924C374.277 128.666 354.519 148.78 330.489 148.78C306.103 148.78 286.167 128.666 286.167 103.924ZM299.517 103.924C299.517 121.012 312.333 137.032 330.667 137.032C348.467 137.032 360.927 121.012 360.927 103.924C360.927 87.014 348.467 71.172 330.667 71.172C312.333 71.172 299.517 87.014 299.517 103.924ZM394.591 60.314H407.585V76.512C414.527 66.366 425.207 59.602 438.023 59.602C441.049 59.602 444.253 59.958 447.457 60.848V73.486C444.609 72.774 441.761 72.418 438.735 72.418C426.097 72.418 413.459 79.36 407.585 94.49V147H394.591V60.314ZM477.944 147H464.95V60.314H477.944V75.978C483.818 67.256 493.252 59.246 507.314 59.246C518.884 59.246 528.14 66.366 531.878 77.046C538.108 67.968 548.076 59.246 563.206 59.246C578.87 59.246 589.906 71.884 589.906 88.794V147H576.556V92.888C576.556 78.648 568.724 71.706 558.934 71.706C547.72 71.706 538.642 79.894 534.014 88.794V147H520.664V92.888C520.664 78.648 512.832 71.706 503.042 71.706C491.116 71.706 482.75 81.496 477.944 90.574V147ZM608.807 123.148C608.807 104.814 623.937 97.16 642.805 97.16L667.725 96.982V92.71C667.725 77.936 659.181 70.282 644.941 70.282C634.261 70.282 625.005 75.444 619.309 80.962L613.079 72.418C620.555 64.764 631.769 59.246 646.365 59.246C666.123 59.246 680.719 69.926 680.719 90.752V147H667.725V136.498C661.495 143.44 652.773 148.068 638.533 148.068C622.335 148.068 608.807 140.77 608.807 123.148ZM644.585 107.662C632.481 107.662 622.157 109.976 622.157 122.08C622.157 133.65 631.413 137.744 642.093 137.744C656.155 137.744 663.275 130.98 667.725 121.902V107.662H644.585Z" fill="#B83134"/>
<path d="M14.952 147H12.952V149H14.952V147ZM14.952 25.96V23.96H12.952V25.96H14.952ZM29.014 25.96H31.014V23.96H29.014V25.96ZM29.014 134.718H27.014V136.718H29.014V134.718ZM87.932 134.718H89.932V132.718H87.932V134.718ZM87.932 147V149H89.932V147H87.932ZM16.952 147V25.96H12.952V147H16.952ZM14.952 27.96H29.014V23.96H14.952V27.96ZM27.014 25.96V134.718H31.014V25.96H27.014ZM29.014 136.718H87.932V132.718H29.014V136.718ZM85.932 134.718V147H89.932V134.718H85.932ZM87.932 145H14.952V149H87.932V145ZM133.002 97.16V99.16H133.009L133.016 99.1599L133.002 97.16ZM157.922 96.982L157.936 98.9819L159.922 98.9678V96.982H157.922ZM109.506 80.962L107.89 82.1403L109.245 83.9991L110.898 82.3985L109.506 80.962ZM103.276 72.418L101.845 71.0205L100.664 72.2301L101.66 73.5963L103.276 72.418ZM170.916 147V149H172.916V147H170.916ZM157.922 147H155.922V149H157.922V147ZM157.922 136.498H159.922V131.275L156.434 135.162L157.922 136.498ZM157.922 121.902L159.718 122.782L159.922 122.366V121.902H157.922ZM157.922 107.662H159.922V105.662H157.922V107.662ZM101.004 123.148C101.004 114.623 104.475 108.752 110.058 104.929C115.744 101.035 123.793 99.16 133.002 99.16V95.16C123.343 95.16 114.393 97.112 107.798 101.629C101.098 106.216 97.0042 113.339 97.0042 123.148H101.004ZM133.016 99.1599L157.936 98.9819L157.908 94.982L132.988 95.1601L133.016 99.1599ZM159.922 96.982V92.71H155.922V96.982H159.922ZM159.922 92.71C159.922 84.9378 157.666 78.7482 153.255 74.5131C148.858 70.291 142.601 68.282 135.138 68.282V72.282C141.915 72.282 147.05 74.1 150.485 77.3984C153.906 80.6838 155.922 85.7082 155.922 92.71H159.922ZM135.138 68.282C123.826 68.282 114.094 73.7334 108.115 79.5255L110.898 82.3985C116.311 77.1546 125.091 72.282 135.138 72.282V68.282ZM111.122 79.7837L104.892 71.2397L101.66 73.5963L107.89 82.1403L111.122 79.7837ZM104.707 73.8155C111.805 66.5487 122.502 61.246 136.562 61.246V57.246C121.43 57.246 109.7 62.9793 101.845 71.0205L104.707 73.8155ZM136.562 61.246C146.101 61.246 154.18 63.824 159.843 68.7043C165.464 73.5485 168.916 80.8413 168.916 90.752H172.916C172.916 79.8366 169.071 71.3765 162.454 65.6742C155.879 60.0079 146.781 57.246 136.562 57.246V61.246ZM168.916 90.752V147H172.916V90.752H168.916ZM170.916 145H157.922V149H170.916V145ZM159.922 147V136.498H155.922V147H159.922ZM156.434 135.162C150.614 141.647 142.45 146.068 128.73 146.068V150.068C143.491 150.068 152.771 145.233 159.411 137.834L156.434 135.162ZM128.73 146.068C120.892 146.068 113.934 144.297 108.988 140.612C104.127 136.992 101.004 131.378 101.004 123.148H97.0042C97.0042 132.54 100.645 139.386 106.598 143.82C112.465 148.19 120.371 150.068 128.73 150.068V146.068ZM134.782 105.662C128.689 105.662 122.666 106.228 118.119 108.551C115.801 109.735 113.826 111.396 112.444 113.688C111.063 115.977 110.354 118.765 110.354 122.08H114.354C114.354 119.343 114.935 117.302 115.869 115.753C116.801 114.208 118.163 113.02 119.939 112.113C123.58 110.253 128.772 109.662 134.782 109.662V105.662ZM110.354 122.08C110.354 128.49 112.966 133.044 117.196 135.907C121.308 138.69 126.746 139.744 132.29 139.744V135.744C127.154 135.744 122.625 134.751 119.438 132.594C116.37 130.518 114.354 127.24 114.354 122.08H110.354ZM132.29 139.744C139.659 139.744 145.366 137.966 149.847 134.873C154.309 131.793 157.397 127.518 159.718 122.782L156.126 121.022C153.998 125.364 151.3 129.01 147.575 131.581C143.867 134.14 138.984 135.744 132.29 135.744V139.744ZM159.922 121.902V107.662H155.922V121.902H159.922ZM157.922 105.662H134.782V109.662H157.922V105.662ZM198.435 25.96V23.96H196.435V25.96H198.435ZM279.781 25.96H281.781V23.96H279.781V25.96ZM279.781 38.242V40.242H281.781V38.242H279.781ZM212.319 38.242V36.242H210.319V38.242H212.319ZM212.319 81.496H210.319V83.496H212.319V81.496ZM269.101 81.496H271.101V79.496H269.101V81.496ZM269.101 93.956V95.956H271.101V93.956H269.101ZM212.319 93.956V91.956H210.319V93.956H212.319ZM212.319 147V149H214.319V147H212.319ZM198.435 147H196.435V149H198.435V147ZM198.435 27.96H279.781V23.96H198.435V27.96ZM277.781 25.96V38.242H281.781V25.96H277.781ZM279.781 36.242H212.319V40.242H279.781V36.242ZM210.319 38.242V81.496H214.319V38.242H210.319ZM212.319 83.496H269.101V79.496H212.319V83.496ZM267.101 81.496V93.956H271.101V81.496H267.101ZM269.101 91.956H212.319V95.956H269.101V91.956ZM210.319 93.956V147H214.319V93.956H210.319ZM212.319 145H198.435V149H212.319V145ZM200.435 147V25.96H196.435V147H200.435ZM288.167 103.924C288.167 80.4489 307.223 61.246 330.489 61.246V57.246C304.983 57.246 284.167 78.2711 284.167 103.924H288.167ZM330.489 61.246C353.378 61.246 372.277 80.4278 372.277 103.924H376.277C376.277 78.2922 355.66 57.246 330.489 57.246V61.246ZM372.277 103.924C372.277 127.603 353.373 146.78 330.489 146.78V150.78C355.665 150.78 376.277 129.729 376.277 103.924H372.277ZM330.489 146.78C307.228 146.78 288.167 127.582 288.167 103.924H284.167C284.167 129.75 304.978 150.78 330.489 150.78V146.78ZM297.517 103.924C297.517 121.902 311.025 139.032 330.667 139.032V135.032C313.641 135.032 301.517 120.122 301.517 103.924H297.517ZM330.667 139.032C349.825 139.032 362.927 121.845 362.927 103.924H358.927C358.927 120.179 347.109 135.032 330.667 135.032V139.032ZM362.927 103.924C362.927 86.1593 349.806 69.172 330.667 69.172V73.172C347.128 73.172 358.927 87.8687 358.927 103.924H362.927ZM330.667 69.172C311.045 69.172 297.517 86.1025 297.517 103.924H301.517C301.517 87.9255 313.621 73.172 330.667 73.172V69.172ZM394.591 60.314V58.314H392.591V60.314H394.591ZM407.585 60.314H409.585V58.314H407.585V60.314ZM407.585 76.512H405.585V82.9769L409.236 77.6414L407.585 76.512ZM447.457 60.848H449.457V59.3278L447.993 58.921L447.457 60.848ZM447.457 73.486L446.972 75.4263L449.457 76.0476V73.486H447.457ZM407.585 94.49L405.721 93.7662L405.585 94.1154V94.49H407.585ZM407.585 147V149H409.585V147H407.585ZM394.591 147H392.591V149H394.591V147ZM394.591 62.314H407.585V58.314H394.591V62.314ZM405.585 60.314V76.512H409.585V60.314H405.585ZM409.236 77.6414C415.87 67.9449 425.975 61.602 438.023 61.602V57.602C424.439 57.602 413.184 64.7871 405.935 75.3826L409.236 77.6414ZM438.023 61.602C440.894 61.602 443.916 61.94 446.922 62.775L447.993 58.921C444.591 57.976 441.204 57.602 438.023 57.602V61.602ZM445.457 60.848V73.486H449.457V60.848H445.457ZM447.942 71.5457C444.936 70.794 441.925 70.418 438.735 70.418V74.418C441.598 74.418 444.283 74.754 446.972 75.4263L447.942 71.5457ZM438.735 70.418C425.321 70.418 411.911 77.822 405.721 93.7662L409.45 95.2138C415.008 80.898 426.873 74.418 438.735 74.418V70.418ZM405.585 94.49V147H409.585V94.49H405.585ZM407.585 145H394.591V149H407.585V145ZM396.591 147V60.314H392.591V147H396.591ZM477.944 147V149H479.944V147H477.944ZM464.95 147H462.95V149H464.95V147ZM464.95 60.314V58.314H462.95V60.314H464.95ZM477.944 60.314H479.944V58.314H477.944V60.314ZM477.944 75.978H475.944V82.5281L479.603 77.0952L477.944 75.978ZM531.878 77.046L529.99 77.7067L531.294 81.4316L533.527 78.1777L531.878 77.046ZM589.906 147V149H591.906V147H589.906ZM576.556 147H574.556V149H576.556V147ZM534.014 88.794L532.239 87.8713L532.014 88.3051V88.794H534.014ZM534.014 147V149H536.014V147H534.014ZM520.664 147H518.664V149H520.664V147ZM477.944 90.574L476.176 89.6382L475.944 90.0772V90.574H477.944ZM477.944 145H464.95V149H477.944V145ZM466.95 147V60.314H462.95V147H466.95ZM464.95 62.314H477.944V58.314H464.95V62.314ZM475.944 60.314V75.978H479.944V60.314H475.944ZM479.603 77.0952C485.247 68.7139 494.137 61.246 507.314 61.246V57.246C492.367 57.246 482.388 65.7981 476.285 74.8608L479.603 77.0952ZM507.314 61.246C517.976 61.246 526.513 67.7727 529.99 77.7067L533.766 76.3853C529.767 64.9593 519.792 57.246 507.314 57.246V61.246ZM533.527 78.1777C539.543 69.4116 548.973 61.246 563.206 61.246V57.246C547.178 57.246 536.673 66.5243 530.229 75.9143L533.527 78.1777ZM563.206 61.246C577.562 61.246 587.906 72.7731 587.906 88.794H591.906C591.906 70.9949 580.178 57.246 563.206 57.246V61.246ZM587.906 88.794V147H591.906V88.794H587.906ZM589.906 145H576.556V149H589.906V145ZM578.556 147V92.888H574.556V147H578.556ZM578.556 92.888C578.556 85.4084 576.495 79.5881 572.899 75.6149C569.29 71.6273 564.318 69.706 558.934 69.706V73.706C563.34 73.706 567.179 75.2557 569.933 78.2991C572.701 81.3569 574.556 86.1276 574.556 92.888H578.556ZM558.934 69.706C546.705 69.706 537.067 78.5882 532.239 87.8713L535.788 89.7167C540.217 81.1998 548.735 73.706 558.934 73.706V69.706ZM532.014 88.794V147H536.014V88.794H532.014ZM534.014 145H520.664V149H534.014V145ZM522.664 147V92.888H518.664V147H522.664ZM522.664 92.888C522.664 85.4084 520.603 79.5881 517.007 75.6149C513.398 71.6273 508.426 69.706 503.042 69.706V73.706C507.448 73.706 511.287 75.2557 514.041 78.2991C516.809 81.3569 518.664 86.1276 518.664 92.888H522.664ZM503.042 69.706C489.931 69.706 481.055 80.4237 476.176 89.6382L479.711 91.5098C484.445 82.5683 492.301 73.706 503.042 73.706V69.706ZM475.944 90.574V147H479.944V90.574H475.944ZM642.805 97.16V99.16H642.812L642.82 99.1599L642.805 97.16ZM667.725 96.982L667.74 98.9819L669.725 98.9678V96.982H667.725ZM619.309 80.962L617.693 82.1403L619.049 83.9991L620.701 82.3985L619.309 80.962ZM613.079 72.418L611.649 71.0205L610.467 72.2301L611.463 73.5963L613.079 72.418ZM680.719 147V149H682.719V147H680.719ZM667.725 147H665.725V149H667.725V147ZM667.725 136.498H669.725V131.275L666.237 135.162L667.725 136.498ZM667.725 121.902L669.521 122.782L669.725 122.366V121.902H667.725ZM667.725 107.662H669.725V105.662H667.725V107.662ZM610.807 123.148C610.807 114.623 614.279 108.752 619.861 104.929C625.547 101.035 633.596 99.16 642.805 99.16V95.16C633.146 95.16 624.196 97.112 617.601 101.629C610.901 106.216 606.807 113.339 606.807 123.148H610.807ZM642.82 99.1599L667.74 98.9819L667.711 94.982L642.791 95.1601L642.82 99.1599ZM669.725 96.982V92.71H665.725V96.982H669.725ZM669.725 92.71C669.725 84.9378 667.469 78.7482 663.059 74.5131C658.661 70.291 652.404 68.282 644.941 68.282V72.282C651.718 72.282 656.853 74.1 660.288 77.3984C663.71 80.6838 665.725 85.7082 665.725 92.71H669.725ZM644.941 68.282C633.629 68.282 623.897 73.7334 617.918 79.5255L620.701 82.3985C626.114 77.1546 634.894 72.282 644.941 72.282V68.282ZM620.925 79.7837L614.695 71.2397L611.463 73.5963L617.693 82.1403L620.925 79.7837ZM614.51 73.8155C621.608 66.5487 632.305 61.246 646.365 61.246V57.246C631.233 57.246 619.503 62.9793 611.649 71.0205L614.51 73.8155ZM646.365 61.246C655.904 61.246 663.983 63.824 669.646 68.7043C675.267 73.5485 678.719 80.8413 678.719 90.752H682.719C682.719 79.8366 678.874 71.3765 672.257 65.6742C665.682 60.0079 656.585 57.246 646.365 57.246V61.246ZM678.719 90.752V147H682.719V90.752H678.719ZM680.719 145H667.725V149H680.719V145ZM669.725 147V136.498H665.725V147H669.725ZM666.237 135.162C660.417 141.647 652.253 146.068 638.533 146.068V150.068C653.294 150.068 662.574 145.233 669.214 137.834L666.237 135.162ZM638.533 146.068C630.695 146.068 623.737 144.297 618.791 140.612C613.93 136.992 610.807 131.378 610.807 123.148H606.807C606.807 132.54 610.448 139.386 616.401 143.82C622.268 148.19 630.174 150.068 638.533 150.068V146.068ZM644.585 105.662C638.492 105.662 632.469 106.228 627.922 108.551C625.604 109.735 623.629 111.396 622.247 113.688C620.867 115.977 620.157 118.765 620.157 122.08H624.157C624.157 119.343 624.739 117.302 625.672 115.753C626.604 114.208 627.966 113.02 629.742 112.113C633.383 110.253 638.575 109.662 644.585 109.662V105.662ZM620.157 122.08C620.157 128.49 622.769 133.044 626.999 135.907C631.111 138.69 636.549 139.744 642.093 139.744V135.744C636.957 135.744 632.428 134.751 629.241 132.594C626.173 130.518 624.157 127.24 624.157 122.08H620.157ZM642.093 139.744C649.462 139.744 655.17 137.966 659.65 134.873C664.112 131.793 667.2 127.518 669.521 122.782L665.929 121.022C663.801 125.364 661.103 129.01 657.378 131.581C653.67 134.14 648.787 135.744 642.093 135.744V139.744ZM669.725 121.902V107.662H665.725V121.902H669.725ZM667.725 105.662H644.585V109.662H667.725V105.662Z" fill="#B83130" mask="url(#path-1-outside-1_3423_14)"/>
<mask id="path-3-outside-2_3423_14" maskUnits="userSpaceOnUse" x="10" y="188" width="678" height="63" fill="black">
<rect fill="white" x="10" y="188" width="678" height="63"/>
<path d="M11.87 218.66C11.87 209.7 18.52 202.49 27.83 202.49C33.99 202.49 37.98 205.22 40.43 208.51V202.91H45.54V231.82C45.54 242.39 39.8 249.6 28.25 249.6C23.77 249.6 19.36 248.62 16.56 247.43V242.67C19.29 243.72 23.42 244.91 27.55 244.91C35.88 244.91 40.43 240.29 40.43 232.45V228.74C37.98 232.03 33.99 234.9 27.83 234.97C18.52 234.97 11.87 227.55 11.87 218.66ZM28.6 207.32C21.53 207.32 17.12 212.57 17.12 218.66C17.12 224.68 21.53 230.14 28.6 230.14C34.97 230.14 39.1 224.82 40.43 222.02V215.65C39.1 211.94 34.97 207.32 28.6 207.32ZM130.556 227.62C130.556 220.41 136.506 217.4 143.926 217.4L153.726 217.33V215.65C153.726 209.84 150.366 206.83 144.766 206.83C140.566 206.83 136.926 208.86 134.686 211.03L132.236 207.67C135.176 204.66 139.586 202.49 145.326 202.49C153.096 202.49 158.836 206.69 158.836 214.88V237H153.726V232.87C151.276 235.6 147.846 237.42 142.246 237.42C135.876 237.42 130.556 234.55 130.556 227.62ZM144.626 221.53C139.866 221.53 135.806 222.44 135.806 227.2C135.806 231.75 139.446 233.36 143.646 233.36C149.176 233.36 151.976 230.7 153.726 227.13V221.53H144.626ZM247.148 237V189.4H252.258V237H247.148ZM340.76 237V189.4H345.87V237H340.76ZM431.501 219.92C431.501 210.33 439.271 202.49 448.581 202.49C458.031 202.49 465.241 209.7 465.591 219.99V222.58H437.101C437.451 228.39 442.701 233.01 448.931 233.01C453.481 233.01 457.471 230.28 459.641 226.85L463.771 228.88C460.761 233.92 455.581 237.42 448.861 237.42C438.501 237.42 431.501 229.65 431.501 219.92ZM437.031 218.24H460.201C459.851 212.08 455.161 206.97 448.791 206.97C442.281 206.97 437.381 212.01 437.031 218.24ZM551.293 202.91H556.403V209.28C559.133 205.29 563.333 202.63 568.373 202.63C569.563 202.63 570.823 202.77 572.083 203.12V208.09C570.963 207.81 569.843 207.67 568.653 207.67C563.683 207.67 558.713 210.4 556.403 216.35V237H551.293V202.91ZM667.162 236.58L652.392 202.91H658.202L669.472 230.63L680.742 202.91H686.272L667.302 249.67H661.842L667.162 236.58Z"/>
</mask>
<path d="M11.87 218.66C11.87 209.7 18.52 202.49 27.83 202.49C33.99 202.49 37.98 205.22 40.43 208.51V202.91H45.54V231.82C45.54 242.39 39.8 249.6 28.25 249.6C23.77 249.6 19.36 248.62 16.56 247.43V242.67C19.29 243.72 23.42 244.91 27.55 244.91C35.88 244.91 40.43 240.29 40.43 232.45V228.74C37.98 232.03 33.99 234.9 27.83 234.97C18.52 234.97 11.87 227.55 11.87 218.66ZM28.6 207.32C21.53 207.32 17.12 212.57 17.12 218.66C17.12 224.68 21.53 230.14 28.6 230.14C34.97 230.14 39.1 224.82 40.43 222.02V215.65C39.1 211.94 34.97 207.32 28.6 207.32ZM130.556 227.62C130.556 220.41 136.506 217.4 143.926 217.4L153.726 217.33V215.65C153.726 209.84 150.366 206.83 144.766 206.83C140.566 206.83 136.926 208.86 134.686 211.03L132.236 207.67C135.176 204.66 139.586 202.49 145.326 202.49C153.096 202.49 158.836 206.69 158.836 214.88V237H153.726V232.87C151.276 235.6 147.846 237.42 142.246 237.42C135.876 237.42 130.556 234.55 130.556 227.62ZM144.626 221.53C139.866 221.53 135.806 222.44 135.806 227.2C135.806 231.75 139.446 233.36 143.646 233.36C149.176 233.36 151.976 230.7 153.726 227.13V221.53H144.626ZM247.148 237V189.4H252.258V237H247.148ZM340.76 237V189.4H345.87V237H340.76ZM431.501 219.92C431.501 210.33 439.271 202.49 448.581 202.49C458.031 202.49 465.241 209.7 465.591 219.99V222.58H437.101C437.451 228.39 442.701 233.01 448.931 233.01C453.481 233.01 457.471 230.28 459.641 226.85L463.771 228.88C460.761 233.92 455.581 237.42 448.861 237.42C438.501 237.42 431.501 229.65 431.501 219.92ZM437.031 218.24H460.201C459.851 212.08 455.161 206.97 448.791 206.97C442.281 206.97 437.381 212.01 437.031 218.24ZM551.293 202.91H556.403V209.28C559.133 205.29 563.333 202.63 568.373 202.63C569.563 202.63 570.823 202.77 572.083 203.12V208.09C570.963 207.81 569.843 207.67 568.653 207.67C563.683 207.67 558.713 210.4 556.403 216.35V237H551.293V202.91ZM667.162 236.58L652.392 202.91H658.202L669.472 230.63L680.742 202.91H686.272L667.302 249.67H661.842L667.162 236.58Z" fill="#B83134"/>
<path d="M40.43 208.51L39.628 209.107L41.43 211.527V208.51H40.43ZM40.43 202.91V201.91H39.43V202.91H40.43ZM45.54 202.91H46.54V201.91H45.54V202.91ZM16.56 247.43H15.56V248.092L16.1689 248.35L16.56 247.43ZM16.56 242.67L16.919 241.737L15.56 241.214V242.67H16.56ZM40.43 228.74H41.43V225.723L39.628 228.143L40.43 228.74ZM27.83 234.97V235.97L27.8414 235.97L27.83 234.97ZM40.43 222.02L41.3333 222.449L41.43 222.245V222.02H40.43ZM40.43 215.65H41.43V215.476L41.3713 215.313L40.43 215.65ZM12.87 218.66C12.87 210.22 19.1036 203.49 27.83 203.49V201.49C17.9364 201.49 10.87 209.18 10.87 218.66H12.87ZM27.83 203.49C33.6448 203.49 37.3485 206.046 39.628 209.107L41.232 207.913C38.6115 204.394 34.3352 201.49 27.83 201.49V203.49ZM41.43 208.51V202.91H39.43V208.51H41.43ZM40.43 203.91H45.54V201.91H40.43V203.91ZM44.54 202.91V231.82H46.54V202.91H44.54ZM44.54 231.82C44.54 236.932 43.1529 241.108 40.4909 243.996C37.841 246.871 33.8099 248.6 28.25 248.6V250.6C34.2401 250.6 38.854 248.724 41.9616 245.351C45.0571 241.992 46.54 237.278 46.54 231.82H44.54ZM28.25 248.6C23.8937 248.6 19.618 247.643 16.9511 246.51L16.1689 248.35C19.102 249.597 23.6463 250.6 28.25 250.6V248.6ZM17.56 247.43V242.67H15.56V247.43H17.56ZM16.201 243.603C18.9903 244.676 23.2494 245.91 27.55 245.91V243.91C23.5906 243.91 19.5897 242.764 16.919 241.737L16.201 243.603ZM27.55 245.91C31.8955 245.91 35.397 244.702 37.8137 242.334C40.2329 239.964 41.43 236.562 41.43 232.45H39.43C39.43 236.178 38.3521 239.006 36.4139 240.906C34.473 242.808 31.5345 243.91 27.55 243.91V245.91ZM41.43 232.45V228.74H39.43V232.45H41.43ZM39.628 228.143C37.3362 231.22 33.6225 233.904 27.8186 233.97L27.8414 235.97C34.3575 235.896 38.6238 232.84 41.232 229.337L39.628 228.143ZM27.83 233.97C19.1173 233.97 12.87 227.044 12.87 218.66H10.87C10.87 228.056 17.9227 235.97 27.83 235.97V233.97ZM28.6 206.32C20.9375 206.32 16.12 212.059 16.12 218.66H18.12C18.12 213.081 22.1225 208.32 28.6 208.32V206.32ZM16.12 218.66C16.12 225.171 20.9184 231.14 28.6 231.14V229.14C22.1416 229.14 18.12 224.189 18.12 218.66H16.12ZM28.6 231.14C32.0798 231.14 34.9249 229.684 37.0491 227.895C39.1643 226.114 40.6132 223.965 41.3333 222.449L39.5267 221.591C38.9168 222.875 37.6357 224.786 35.7609 226.365C33.8951 227.936 31.4902 229.14 28.6 229.14V231.14ZM41.43 222.02V215.65H39.43V222.02H41.43ZM41.3713 215.313C39.9383 211.315 35.4981 206.32 28.6 206.32V208.32C34.4419 208.32 38.2617 212.565 39.4887 215.987L41.3713 215.313ZM143.926 217.4V218.4L143.933 218.4L143.926 217.4ZM153.726 217.33L153.733 218.33L154.726 218.323V217.33H153.726ZM134.686 211.03L133.878 211.619L134.556 212.549L135.382 211.748L134.686 211.03ZM132.236 207.67L131.521 206.971L130.93 207.576L131.428 208.259L132.236 207.67ZM158.836 237V238H159.836V237H158.836ZM153.726 237H152.726V238H153.726V237ZM153.726 232.87H154.726V230.259L152.982 232.202L153.726 232.87ZM153.726 227.13L154.624 227.57L154.726 227.362V227.13H153.726ZM153.726 221.53H154.726V220.53H153.726V221.53ZM131.556 227.62C131.556 224.336 132.888 222.094 135.024 220.631C137.211 219.133 140.329 218.4 143.926 218.4V216.4C140.104 216.4 136.536 217.172 133.894 218.981C131.199 220.826 129.556 223.694 129.556 227.62H131.556ZM143.933 218.4L153.733 218.33L153.719 216.33L143.919 216.4L143.933 218.4ZM154.726 217.33V215.65H152.726V217.33H154.726ZM154.726 215.65C154.726 212.552 153.826 210.056 152.039 208.34C150.258 206.63 147.738 205.83 144.766 205.83V207.83C147.395 207.83 149.354 208.535 150.653 209.783C151.946 211.024 152.726 212.938 152.726 215.65H154.726ZM144.766 205.83C140.25 205.83 136.372 208.005 133.99 210.312L135.382 211.748C137.48 209.715 140.882 207.83 144.766 207.83V205.83ZM135.494 210.441L133.044 207.081L131.428 208.259L133.878 211.619L135.494 210.441ZM132.951 208.369C135.702 205.552 139.854 203.49 145.326 203.49V201.49C139.318 201.49 134.65 203.768 131.521 206.971L132.951 208.369ZM145.326 203.49C149.041 203.49 152.164 204.494 154.342 206.371C156.499 208.231 157.836 211.036 157.836 214.88H159.836C159.836 210.534 158.303 207.144 155.648 204.856C153.013 202.586 149.381 201.49 145.326 201.49V203.49ZM157.836 214.88V237H159.836V214.88H157.836ZM158.836 236H153.726V238H158.836V236ZM154.726 237V232.87H152.726V237H154.726ZM152.982 232.202C150.737 234.704 147.586 236.42 142.246 236.42V238.42C148.106 238.42 151.815 236.496 154.47 233.538L152.982 232.202ZM142.246 236.42C139.191 236.42 136.506 235.729 134.61 234.317C132.757 232.937 131.556 230.795 131.556 227.62H129.556C129.556 231.375 131.016 234.133 133.415 235.921C135.771 237.676 138.931 238.42 142.246 238.42V236.42ZM144.626 220.53C142.225 220.53 139.813 220.751 137.976 221.689C137.036 222.17 136.226 222.848 135.658 223.79C135.092 224.729 134.806 225.866 134.806 227.2H136.806C136.806 226.154 137.028 225.392 137.371 224.822C137.714 224.254 138.217 223.813 138.886 223.471C140.27 222.764 142.267 222.53 144.626 222.53V220.53ZM134.806 227.2C134.806 229.787 135.865 231.647 137.591 232.814C139.257 233.942 141.444 234.36 143.646 234.36V232.36C141.648 232.36 139.915 231.973 138.712 231.158C137.567 230.383 136.806 229.163 136.806 227.2H134.806ZM143.646 234.36C146.58 234.36 148.869 233.651 150.672 232.407C152.466 231.168 153.701 229.454 154.624 227.57L152.828 226.69C152.001 228.376 150.961 229.777 149.536 230.761C148.119 231.739 146.242 232.36 143.646 232.36V234.36ZM154.726 227.13V221.53H152.726V227.13H154.726ZM153.726 220.53H144.626V222.53H153.726V220.53ZM247.148 237H246.148V238H247.148V237ZM247.148 189.4V188.4H246.148V189.4H247.148ZM252.258 189.4H253.258V188.4H252.258V189.4ZM252.258 237V238H253.258V237H252.258ZM248.148 237V189.4H246.148V237H248.148ZM247.148 190.4H252.258V188.4H247.148V190.4ZM251.258 189.4V237H253.258V189.4H251.258ZM252.258 236H247.148V238H252.258V236ZM340.76 237H339.76V238H340.76V237ZM340.76 189.4V188.4H339.76V189.4H340.76ZM345.87 189.4H346.87V188.4H345.87V189.4ZM345.87 237V238H346.87V237H345.87ZM341.76 237V189.4H339.76V237H341.76ZM340.76 190.4H345.87V188.4H340.76V190.4ZM344.87 189.4V237H346.87V189.4H344.87ZM345.87 236H340.76V238H345.87V236ZM465.591 219.99H466.591V219.973L466.59 219.956L465.591 219.99ZM465.591 222.58V223.58H466.591V222.58H465.591ZM437.101 222.58V221.58H436.039L436.103 222.64L437.101 222.58ZM459.641 226.85L460.082 225.953L459.276 225.556L458.796 226.315L459.641 226.85ZM463.771 228.88L464.629 229.393L465.186 228.461L464.212 227.983L463.771 228.88ZM437.031 218.24L436.032 218.184L435.973 219.24H437.031V218.24ZM460.201 218.24V219.24H461.259L461.199 218.183L460.201 218.24ZM432.501 219.92C432.501 210.866 439.839 203.49 448.581 203.49V201.49C438.703 201.49 430.501 209.794 430.501 219.92H432.501ZM448.581 203.49C457.442 203.49 464.258 210.222 464.591 220.024L466.59 219.956C466.224 209.178 458.619 201.49 448.581 201.49V203.49ZM464.591 219.99V222.58H466.591V219.99H464.591ZM465.591 221.58H437.101V223.58H465.591V221.58ZM436.103 222.64C436.488 229.037 442.233 234.01 448.931 234.01V232.01C443.168 232.01 438.414 227.743 438.099 222.52L436.103 222.64ZM448.931 234.01C453.883 234.01 458.167 231.05 460.486 227.385L458.796 226.315C456.775 229.51 453.079 232.01 448.931 232.01V234.01ZM459.2 227.747L463.33 229.777L464.212 227.983L460.082 225.953L459.2 227.747ZM462.912 228.367C460.064 233.137 455.193 236.42 448.861 236.42V238.42C455.968 238.42 461.458 234.703 464.629 229.393L462.912 228.367ZM448.861 236.42C439.087 236.42 432.501 229.133 432.501 219.92H430.501C430.501 230.167 437.914 238.42 448.861 238.42V236.42ZM437.031 219.24H460.201V217.24H437.031V219.24ZM461.199 218.183C460.823 211.563 455.758 205.97 448.791 205.97V207.97C454.564 207.97 458.879 212.597 459.202 218.297L461.199 218.183ZM448.791 205.97C441.719 205.97 436.41 211.457 436.032 218.184L438.029 218.296C438.351 212.563 442.843 207.97 448.791 207.97V205.97ZM551.293 202.91V201.91H550.293V202.91H551.293ZM556.403 202.91H557.403V201.91H556.403V202.91ZM556.403 209.28H555.403V212.512L557.228 209.845L556.403 209.28ZM572.083 203.12H573.083V202.36L572.35 202.156L572.083 203.12ZM572.083 208.09L571.84 209.06L573.083 209.371V208.09H572.083ZM556.403 216.35L555.471 215.988L555.403 216.163V216.35H556.403ZM556.403 237V238H557.403V237H556.403ZM551.293 237H550.293V238H551.293V237ZM551.293 203.91H556.403V201.91H551.293V203.91ZM555.403 202.91V209.28H557.403V202.91H555.403ZM557.228 209.845C559.804 206.079 563.717 203.63 568.373 203.63V201.63C562.949 201.63 558.461 204.501 555.577 208.715L557.228 209.845ZM568.373 203.63C569.485 203.63 570.654 203.761 571.815 204.084L572.35 202.156C570.991 201.779 569.64 201.63 568.373 201.63V203.63ZM571.083 203.12V208.09H573.083V203.12H571.083ZM572.325 207.12C571.126 206.82 569.924 206.67 568.653 206.67V208.67C569.761 208.67 570.8 208.8 571.84 209.06L572.325 207.12ZM568.653 206.67C563.295 206.67 557.939 209.631 555.471 215.988L557.335 216.712C559.487 211.169 564.071 208.67 568.653 208.67V206.67ZM555.403 216.35V237H557.403V216.35H555.403ZM556.403 236H551.293V238H556.403V236ZM552.293 237V202.91H550.293V237H552.293ZM667.162 236.58L668.088 236.957L668.247 236.565L668.078 236.178L667.162 236.58ZM652.392 202.91V201.91H650.861L651.476 203.312L652.392 202.91ZM658.202 202.91L659.128 202.533L658.875 201.91H658.202V202.91ZM669.472 230.63L668.546 231.007L669.472 233.285L670.398 231.007L669.472 230.63ZM680.742 202.91V201.91H680.069L679.816 202.533L680.742 202.91ZM686.272 202.91L687.199 203.286L687.757 201.91H686.272V202.91ZM667.302 249.67V250.67H667.975L668.229 250.046L667.302 249.67ZM661.842 249.67L660.915 249.293L660.356 250.67H661.842V249.67ZM668.078 236.178L653.308 202.508L651.476 203.312L666.246 236.982L668.078 236.178ZM652.392 203.91H658.202V201.91H652.392V203.91ZM657.276 203.287L668.546 231.007L670.398 230.253L659.128 202.533L657.276 203.287ZM670.398 231.007L681.668 203.287L679.816 202.533L668.546 230.253L670.398 231.007ZM680.742 203.91H686.272V201.91H680.742V203.91ZM685.345 202.534L666.375 249.294L668.229 250.046L687.199 203.286L685.345 202.534ZM667.302 248.67H661.842V250.67H667.302V248.67ZM662.768 250.047L668.088 236.957L666.235 236.203L660.915 249.293L662.768 250.047Z" fill="#B83130" mask="url(#path-3-outside-2_3423_14)"/>
<mask id="path-5-outside-3_3423_14" maskUnits="userSpaceOnUse" x="681" y="20" width="40" height="40" fill="black">
<rect fill="white" x="681" y="20" width="40" height="40"/>
<path d="M682 40C682 29.8 690.4 21.4 700.6 21.4C710.8 21.4 719.2 29.8 719.2 40C719.2 50.2 710.8 58.6 700.6 58.6C690.4 58.6 682 50.2 682 40ZM684.7 40C684.7 48.8 691.8 55.9 700.6 55.9C709.4 55.9 716.5 48.8 716.5 40C716.5 31.25 709.35 24.1 700.6 24.1C691.8 24.1 684.7 31.2 684.7 40ZM693.5 30.45H701C705.85 30.45 708.05 32.7 708.05 36.7C708.05 39.7 706.85 42 703.65 42.85L707.65 49.55H704.6L700.8 43.15H696.4V49.55H693.5V30.45ZM696.4 33.1V40.5H700.45C703.9 40.5 705.05 39.05 705.05 36.7C705.05 34.1 703.45 33.1 700.45 33.1H696.4Z"/>
</mask>
<path d="M682 40C682 29.8 690.4 21.4 700.6 21.4C710.8 21.4 719.2 29.8 719.2 40C719.2 50.2 710.8 58.6 700.6 58.6C690.4 58.6 682 50.2 682 40ZM684.7 40C684.7 48.8 691.8 55.9 700.6 55.9C709.4 55.9 716.5 48.8 716.5 40C716.5 31.25 709.35 24.1 700.6 24.1C691.8 24.1 684.7 31.2 684.7 40ZM693.5 30.45H701C705.85 30.45 708.05 32.7 708.05 36.7C708.05 39.7 706.85 42 703.65 42.85L707.65 49.55H704.6L700.8 43.15H696.4V49.55H693.5V30.45ZM696.4 33.1V40.5H700.45C703.9 40.5 705.05 39.05 705.05 36.7C705.05 34.1 703.45 33.1 700.45 33.1H696.4Z" fill="#B83134"/>
<path d="M693.5 30.45V29.45H692.5V30.45H693.5ZM703.65 42.85L703.393 41.8835L702.112 42.224L702.791 43.3626L703.65 42.85ZM707.65 49.55V50.55H709.412L708.509 49.0374L707.65 49.55ZM704.6 49.55L703.74 50.0605L704.031 50.55H704.6V49.55ZM700.8 43.15L701.66 42.6395L701.369 42.15H700.8V43.15ZM696.4 43.15V42.15H695.4V43.15H696.4ZM696.4 49.55V50.55H697.4V49.55H696.4ZM693.5 49.55H692.5V50.55H693.5V49.55ZM696.4 33.1V32.1H695.4V33.1H696.4ZM696.4 40.5H695.4V41.5H696.4V40.5ZM683 40C683 30.3523 690.952 22.4 700.6 22.4V20.4C689.848 20.4 681 29.2477 681 40H683ZM700.6 22.4C710.248 22.4 718.2 30.3523 718.2 40H720.2C720.2 29.2477 711.352 20.4 700.6 20.4V22.4ZM718.2 40C718.2 49.6477 710.248 57.6 700.6 57.6V59.6C711.352 59.6 720.2 50.7523 720.2 40H718.2ZM700.6 57.6C690.952 57.6 683 49.6477 683 40H681C681 50.7523 689.848 59.6 700.6 59.6V57.6ZM683.7 40C683.7 49.3523 691.248 56.9 700.6 56.9V54.9C692.352 54.9 685.7 48.2477 685.7 40H683.7ZM700.6 56.9C709.952 56.9 717.5 49.3523 717.5 40H715.5C715.5 48.2477 708.848 54.9 700.6 54.9V56.9ZM717.5 40C717.5 30.6977 709.902 23.1 700.6 23.1V25.1C708.798 25.1 715.5 31.8023 715.5 40H717.5ZM700.6 23.1C691.248 23.1 683.7 30.6477 683.7 40H685.7C685.7 31.7523 692.352 25.1 700.6 25.1V23.1ZM693.5 31.45H701V29.45H693.5V31.45ZM701 31.45C703.288 31.45 704.765 31.9824 705.667 32.8113C706.554 33.6259 707.05 34.8797 707.05 36.7H709.05C709.05 34.5203 708.446 32.6491 707.02 31.3387C705.61 30.0426 703.562 29.45 701 29.45V31.45ZM707.05 36.7C707.05 38.0755 706.774 39.1876 706.216 40.0288C705.671 40.8513 704.794 41.5115 703.393 41.8835L703.907 43.8165C705.706 43.3385 707.029 42.4237 707.884 41.1337C708.726 39.8624 709.05 38.3245 709.05 36.7H707.05ZM702.791 43.3626L706.791 50.0626L708.509 49.0374L704.509 42.3374L702.791 43.3626ZM707.65 48.55H704.6V50.55H707.65V48.55ZM705.46 49.0395L701.66 42.6395L699.94 43.6605L703.74 50.0605L705.46 49.0395ZM700.8 42.15H696.4V44.15H700.8V42.15ZM695.4 43.15V49.55H697.4V43.15H695.4ZM696.4 48.55H693.5V50.55H696.4V48.55ZM694.5 49.55V30.45H692.5V49.55H694.5ZM695.4 33.1V40.5H697.4V33.1H695.4ZM696.4 41.5H700.45V39.5H696.4V41.5ZM700.45 41.5C702.287 41.5 703.734 41.1183 704.718 40.2197C705.724 39.3013 706.05 38.0261 706.05 36.7H704.05C704.05 37.7239 703.801 38.3487 703.369 38.7428C702.916 39.1567 702.063 39.5 700.45 39.5V41.5ZM706.05 36.7C706.05 35.1805 705.569 33.9367 704.471 33.1219C703.437 32.3551 702.024 32.1 700.45 32.1V34.1C701.876 34.1 702.763 34.3449 703.279 34.7281C703.731 35.0633 704.05 35.6195 704.05 36.7H706.05ZM700.45 32.1H696.4V34.1H700.45V32.1Z" fill="#B83130" mask="url(#path-5-outside-3_3423_14)"/>
</svg>
